' Do not edit
' Theme Gallery
' autogenerated by script
'
@startuml
!theme plain
state Somp {
  state entry1 <<entryPoint>>
  state entry2 <<entryPoint>>
  state exitA <<exitPoint>>
  state sin
  
  entry1 --> sin
  entry2 -> sin
  sin -> sin2
  sin2 --> exitA
}

[*] --> entry1
exitA --> Foo
Foo1 -> entry2
@enduml
