' Do not edit
' Theme Gallery
' autogenerated by script
'
@startuml
!theme cyborg
state choice1 <<choice>>
state fork1   <<fork>>
state join2   <<join>>
state end3    <<end>>

[*]     --> choice1 : from start\nto choice
choice1 --> fork1   : from choice\nto fork
choice1 --> join2   : from choice\nto join
choice1 --> end3    : from choice\nto end

fork1   ---> State1 : from fork\nto state
fork1   --> State2  : from fork\nto state

State2  --> join2   : from state\nto join
State1  --> [*]     : from state\nto end

join2   --> [*]     : from join\nto end
@enduml
